#!OML:ASF F:\VICON\USERDATA\INSTALL\rory3\rory3.ASF
:FULLY-SPECIFIED
:DEGREES
862
root -0.904579 14.4832 -0.349112 -159.067 7.38076 184.375
lowerback 23.6927 0.886484 2.50842
upperback 10.8316 4.00849 0.155502
thorax -1.15061 2.98326 -2.22877
lowerneck -20.0736 1.80709 0.856028
upperneck 34.2283 0.00820166 -0.0923809
head 15.3896 -0.502727 -0.353955
rclavicle -1.35174e-014 -4.51241e-014
rhumerus -139.298 -150.855 144.642
rradius 11.7054
rwrist 94.346
rhand 16.8949 -4.9371
rfingers 7.12502
rthumb 41.6322 -29.6492
lclavicle -1.35174e-014 -4.51241e-014
lhumerus 43.5087 -24.2054 -23.8333
lradius 21.3476
lwrist -36.3239
lhand 22.9249 38.0115
lfingers 7.12502
lthumb 47.2495 60.567
rfemur -90.4939 -21.116 51.1422
rtibia 103.212
rfoot 44.899 -35.4746
rtoes 35.6077
lfemur -76.9561 12.2935 -42.6785
ltibia 65.4078
lfoot -22.9997 18.0432
ltoes 18.3871
863
root -0.897733 14.4593 -0.387737 -159.012 7.06123 184.139
lowerback 23.7195 0.888406 2.45125
upperback 10.8061 4.00398 0.233416
thorax -1.20173 2.97588 -2.11545
lowerneck -19.5942 1.74462 0.885591
upperneck 34.3878 -0.171946 -0.12894
head 15.3537 -0.599879 -0.413539
rclavicle -4.13472e-014 3.63776e-014
rhumerus -138.964 -153.348 142.776
rradius 11.5678
rwrist 93.4098
rhand 16.0099 -5.09664
rfingers 7.12502
rthumb 40.8014 -30.0758
lclavicle -4.13472e-014 3.63776e-014
lhumerus 46.2673 -22.797 -21.2997
lradius 21.6249
lwrist -35.9562
lhand 22.0609 37.7553
lfingers 7.12502
lthumb 46.4499 60.6602
rfemur -91.5101 -21.1007 51.5034
rtibia 102.938
rfoot 43.5093 -36.7107
rtoes 37.4906
lfemur -77.1273 12.4658 -43.2488
ltibia 65.7818
lfoot -23.2819 17.4695
ltoes 18.4905
864
root -0.885157 14.4402 -0.423056 -159.032 6.63482 184.252
lowerback 23.8458 0.783451 2.56066
upperback 10.8934 3.94145 0.384989
thorax -1.17599 2.96175 -2.00394
lowerneck -19.739 1.7245 0.875784
upperneck 34.6821 -0.329168 0.0445061
head 15.5288 -0.650946 -0.373497
rclavicle 5.96354e-015 2.68359e-014
rhumerus -138.469 -155.533 140.105
rradius 11.6484
rwrist 93.1732
rhand 15.8184 -4.91026
rfingers 7.12502
rthumb 40.6214 -29.9458
lclavicle 5.96354e-015 2.68359e-014
lhumerus 48.9102 -21.779 -18.8663
lradius 21.8742
lwrist -35.2432
lhand 21.3175 37.825
lfingers 7.12502
lthumb 45.7604 61.0187
rfemur -92.165 -21.0202 52.1291
rtibia 102.568
rfoot 40.946 -37.4245
rtoes 40.0133
lfemur -77.2595 12.6596 -43.3012
ltibia 66.1379
lfoot -23.2237 16.9615
ltoes 17.5785
865
root -0.877026 14.4312 -0.461909 -159.132 6.2894 184.229
lowerback 23.8705 0.664289 2.69972
upperback 10.9732 3.849 0.356581
thorax -1.09486 2.93719 -2.08844
lowerneck -19.6684 1.69814 0.994279
upperneck 34.8244 -0.589493 0.358385
head 15.5829 -0.707168 -0.313143
rclavicle -6.99722e-014 2.44505e-014
rhumerus -138.265 -158.204 137.74
rradius 11.3572
rwrist 92.4625
rhand 16.159 -4.02421
rfingers 7.12502
rthumb 40.9415 -28.9592
lclavicle -6.99722e-014 2.44505e-014
lhumerus 51.4364 -20.5723 -15.631
lradius 22.0499
lwrist -35.3082
lhand 21.2368 37.2127
lfingers 7.12502
lthumb 45.6854 60.4371
rfemur -92.6951 -21.1879 52.5485
rtibia 102.2
rfoot 40.8409 -36.222
rtoes 38.8449
lfemur -77.2192 12.9349 -43.5363
ltibia 66.4147
lfoot -23.1334 16.5385
ltoes 15.8579
866
root -0.871618 14.4304 -0.501515 -159.21 6.0547 183.975
lowerback 23.7619 0.583707 2.57492
upperback 11.0631 3.7357 0.311119
thorax -0.953278 2.89077 -2.02885
lowerneck -19.5069 1.70003 0.98896
upperneck 35.0535 -0.751541 0.568032
head 15.6579 -0.760876 -0.258731
rclavicle 1.74931e-014 -1.33186e-014
rhumerus -138.413 -161.409 135.744
rradius 11.2546
rwrist 90.8454
rhand 16.3511 -3.14528
rfingers 7.12502
rthumb 41.1218 -28.0228
lclavicle 1.74931e-014 -1.33186e-014
lhumerus 53.2329 -18.8011 -9.99158
lradius 22.0695
lwrist -37.0923
lhand 20.4644 36.7279
lfingers 7.12502
lthumb 44.9675 60.2403
rfemur -93.0852 -21.4878 52.514
rtibia 101.833
rfoot 40.4039 -35.7339
rtoes 38.849
lfemur -77.132 13.2107 -44.0696
ltibia 66.6281
lfoot -22.9476 16.318
ltoes 13.1771
867
root -0.863731 14.4309 -0.541159 -159.312 5.98439 183.849
lowerback 23.7207 0.601231 2.42702
upperback 11.1093 3.73796 0.273251
thorax -0.887791 2.89443 -1.9814
lowerneck -19.3867 1.73298 0.986861
upperneck 35.4546 -0.921665 0.795128
head 15.829 -0.821885 -0.201874
rclavicle 7.95139e-015 3.97569e-015
rhumerus -138.642 -167.285 136.778
rradius 10.4237
rwrist 84.8943
rhand 16.3936 -2.57105
rfingers 7.12502
rthumb 41.1618 -27.4358
lclavicle 7.95139e-015 3.97569e-015
lhumerus 55.2559 -18.1602 -4.89328
lradius 22.1416
lwrist -37.2362
lhand 17.425 37.2983
lfingers 7.12502
lthumb 42.1292 61.8449
rfemur -93.0347 -21.5929 52.2142
rtibia 101.367
rfoot 40.0912 -34.5994
rtoes 38.9585
lfemur -77.1386 13.6544 -44.5093
ltibia 66.8254
lfoot -22.7671 16.0636
ltoes 11.0363
868
root -0.854958 14.4341 -0.583937 -159.453 5.892 183.789
lowerback 23.6102 0.640129 2.34339
upperback 11.2407 3.804 0.236697
thorax -0.688501 2.94418 -1.97451
lowerneck -19.5047 1.7121 1.28227
upperneck 35.6934 -1.13155 0.802025
head 15.9776 -0.873399 -0.29499
rclavicle 4.21423e-014 1.33186e-014
rhumerus -139.192 -173.689 138.259
rradius 10.4234
rwrist 77.6662
rhand 16.6681 -1.69173
rfingers 7.12502
rthumb 41.4194 -26.4733
lclavicle 4.21423e-014 1.33186e-014
lhumerus 57.4282 -17.926 0.081713
lradius 22.1173
lwrist -37.1377
lhand 15.4263 37.0664
lfingers 7.12502
lthumb 40.2528 62.2157
rfemur -92.8139 -21.8117 51.8227
rtibia 100.923
rfoot 40.9417 -32.1361
rtoes 37.0135
lfemur -77.0012 14.0427 -44.7671
ltibia 66.9145
lfoot -22.7365 15.7153
ltoes 10.31
869
root -0.84593 14.448 -0.627121 -159.875 5.48966 183.776
lowerback 23.6764 0.489344 2.53135
upperback 11.4816 3.73954 0.242754
thorax -0.448781 2.96155 -2.05014
lowerneck -19.5814 1.64622 1.28564
upperneck 35.7876 -1.38851 1.11786
head 16.048 -0.935179 -0.209989
rclavicle -1.78906e-014 1.90833e-014
rhumerus -139.349 -180.931 140.418
rradius 10.7217
rwrist 68.2433
rhand 16.6401 -0.963489
rfingers 7.12502
rthumb 41.3931 -25.7536
lclavicle -1.78906e-014 1.90833e-014
lhumerus 59.1349 -17.1779 6.86594
lradius 21.7585
lwrist -39.3771
lhand 15.8258 35.5055
lfingers 7.12502
lthumb 40.6284 60.5389
rfemur -92.1664 -22.4515 51.3487
rtibia 100.605
rfoot 43.2689 -29.2847
rtoes 33.9406
lfemur -76.3587 14.2515 -44.6436
ltibia 66.9279
lfoot -22.6928 15.4398
ltoes 9.7632
870
root -0.838161 14.4827 -0.677508 -160.78 4.6449 183.456
lowerback 24.1203 0.0140458 2.62817
upperback 11.8313 3.31309 0.281762
thorax -0.297429 2.82158 -1.97258
lowerneck -19.6726 1.6197 0.993521
upperneck 35.8857 -1.51223 1.52751
head 16.1255 -0.970582 -0.00696251
rclavicle 2.38542e-014 -1.96797e-014
rhumerus -138.108 -189.438 144.099
rradius 11.0492
rwrist 56.0976
rhand 16.2382 -0.254758
rfingers 7.12502
rthumb 41.0159 -25.1661
lclavicle 2.38542e-014 -1.96797e-014
lhumerus 60.4635 -17.2142 13.1703
lradius 21.4788
lwrist -40.0212
lhand 14.2879 34.8588
lfingers 7.12502
lthumb 39.1809 60.3267
rfemur -90.9953 -23.9927 50.5939
rtibia 100.425
rfoot 43.9965 -28.2233
rtoes 32.6155
lfemur -74.7605 14.2341 -44.4777
ltibia 66.7301
lfoot -22.7404 15.0677
ltoes 9.02004
871
root -0.834056 14.4739 -0.707487 -160.246 4.44995 183.575
lowerback 23.3116 0.140074 2.78515
upperback 11.7392 3.40913 0.365906
thorax -0.00192072 2.84724 -1.95263
lowerneck -19.9031 1.49019 0.935354
upperneck 36.1572 -1.86256 1.78183
head 16.3269 -1.09159 0.0418684
rclavicle -3.69739e-014 1.15295e-014
rhumerus -136.172 -197.932 148.804
rradius 11.7697
rwrist 42.9428
rhand 15.5232 0.562913
rfingers 7.12502
rthumb 40.3439 -24.5585
lclavicle -3.69739e-014 1.15295e-014
lhumerus 61.6542 -17.316 20.5846
lradius 20.9524
lwrist -41.4648
lhand 13.043 33.3634
lfingers 7.12502
lthumb 38.0065 59.1608
rfemur -91.364 -23.9918 50.6455
rtibia 100.586
rfoot 44.0317 -32.1264
rtoes 35.4137
lfemur -75.2464 14.0327 -44.542
ltibia 66.7887
lfoot -22.7128 14.959
ltoes 8.09445
872
root -0.826462 14.4905 -0.737927 -160.782 4.14281 183.159
lowerback 23.8931 0.122684 2.63761
upperback 11.6948 3.41106 0.2609
thorax -0.332152 2.85475 -2.01739
lowerneck -19.8538 1.33494 0.979805
upperneck 36.3173 -2.27278 1.99326
head 16.4062 -1.23419 0.0430483
rclavicle -2.10712e-014 0
rhumerus -134.767 -203.983 150.909
rradius 13.1274
rwrist 33.1108
rhand 15.2923 1.65765
rfingers 7.12502
rthumb 40.1267 -23.53
lclavicle -2.10712e-014 0
lhumerus 63.0256 -18.6558 26.0886
lradius 20.6497
lwrist -41.0756
lhand 11.4412 32.7767
lfingers 7.12502
lthumb 36.492 58.9708
rfemur -90.576 -24.8209 49.803
rtibia 100.79
rfoot 41.4722 -30.8861
rtoes 34.805
lfemur -74.275 13.9957 -44.6556
ltibia 66.6095
lfoot -22.9033 14.6983
ltoes 7.77106
873
root -0.800022 14.5125 -0.77716 -161.232 4.00768 183.348
lowerback 24.1584 0.187372 2.44629
upperback 11.8106 3.5302 0.439787
thorax -0.348242 2.92481 -1.75404
lowerneck -19.9901 1.23503 0.925669
upperneck 36.3006 -2.38449 1.98645
head 16.432 -1.28356 0.0279859
rclavicle 2.66371e-014 -9.54166e-015
rhumerus -133.465 -208.165 151.483
rradius 15.1014
rwrist 26.1767
rhand 15.2725 2.3941
rfingers 7.12502
rthumb 40.1081 -22.7993
lclavicle 2.66371e-014 -9.54166e-015
lhumerus 64.2536 -20.449 29.928
lradius 20.4788
lwrist -39.2501
lhand 9.15307 32.8326
lfingers 7.12502
lthumb 34.3226 59.5442
rfemur -89.1725 -24.9964 49.4202
rtibia 100.793
rfoot 38.4235 -32.5251
rtoes 36.2806
lfemur -73.624 14.2607 -44.0792
ltibia 66.5063
lfoot -23.0609 14.4798
ltoes 8.29276
874
root -0.788826 14.5411 -0.812469 -161.544 3.67615 183.521
lowerback 24.1266 0.122466 2.46963
upperback 11.8285 3.46991 0.672491
thorax -0.331327 2.89461 -1.5016
lowerneck -19.5351 1.13792 0.666971
upperneck 36.0553 -2.44551 2.08229
head 16.1999 -1.34126 0.106209
rclavicle -9.54166e-015 -7.95139e-016
rhumerus -131.577 -212.568 152.954
rradius 17.3363
rwrist 20.0133
rhand 13.7085 2.2191
rfingers 7.12502
rthumb 38.6346 -23.4046
lclavicle -9.54166e-015 -7.95139e-016
lhumerus 64.8225 -22.1591 34.1798
lradius 20.4134
lwrist -39.0214
lhand 7.87629 32.4264
lfingers 7.12502
lthumb 33.1094 59.4035
rfemur -87.9873 -25.4886 49.1169
rtibia 100.801
rfoot 36.6062 -31.9483
rtoes 34.7716
lfemur -72.9783 14.3366 -43.6622
ltibia 66.3699
lfoot -22.996 14.5647
ltoes 7.13623
875
root -0.772162 14.5804 -0.847068 -161.95 3.12975 183.226
lowerback 24.274 -0.0750431 2.17643
upperback 11.824 3.17657 0.793925
thorax -0.440084 2.73926 -1.14606
lowerneck -19.5706 1.1281 0.187711
upperneck 36.3381 -2.54974 2.50293
head 16.3667 -1.40716 0.348323
rclavicle 4.69132e-014 -2.06736e-014
rhumerus -128.779 -216.73 155.228
rradius 19.5928
rwrist 15.1824
rhand 12.5078 2.87605
rfingers 7.12502
rthumb 37.5008 -23.0573
lclavicle 4.69132e-014 -2.06736e-014
lhumerus 65.2568 -23.7832 37.7061
lradius 20.5858
lwrist -39.7568
lhand 7.98778 31.6634
lfingers 7.12502
lthumb 33.2154 58.618
rfemur -86.8229 -26.4567 48.4644
rtibia 100.851
rfoot 32.9659 -32.2011
rtoes 35.5836
lfemur -71.9973 14.27 -43.6954
ltibia 66.0626
lfoot -22.8005 14.6807
ltoes 5.41797
